<?xml version="1.0" encoding="utf-8"?>
<svg viewBox="0 0 470 150" style="enable-background:new 0 0 1920 1080;" xmlns="http://www.w3.org/2000/svg">
  <g transform="matrix(1, 0, 0, 1, 1.1368683772161603e-13, 2.842170943040401e-14)">
    <path d="M 323.629 97.432 C 323.739 97.032 323.809 96.882 323.809 96.742 C 323.819 82.832 323.819 68.912 323.809 55.002 C 323.809 54.852 323.739 54.712 323.699 54.572 C 323.319 54.512 323.239 54.812 323.109 55.012 C 321.879 57.012 320.849 59.112 319.969 61.292 C 319.839 61.622 319.679 61.932 319.379 62.572 C 319.259 61.782 319.179 61.332 319.119 60.892 C 319.059 60.472 318.999 60.052 318.949 59.622 C 318.409 55.382 317.529 51.222 316.029 47.202 C 314.589 43.322 312.649 39.732 309.829 36.652 C 309.689 36.492 309.559 36.322 309.439 36.152 C 309.409 36.112 309.419 36.052 309.399 35.892 C 309.679 35.542 309.989 35.112 310.329 34.712 C 314.149 30.242 318.729 26.712 323.849 23.862 C 329.289 20.842 335.069 18.722 341.069 17.152 C 346.279 15.782 351.569 14.852 356.919 14.182 C 366.089 13.042 375.299 12.732 384.529 12.932 C 388.099 13.012 391.669 13.092 395.229 13.332 C 398.039 13.522 400.849 13.882 403.639 14.292 C 408.229 14.962 412.769 15.862 417.239 17.122 C 423.839 18.972 430.129 21.542 435.899 25.292 C 443.159 30.002 448.809 36.202 452.989 43.762 C 455.319 47.972 457.109 52.412 458.559 56.992 C 458.619 57.192 458.679 57.402 458.699 57.612 C 458.709 57.702 458.649 57.802 458.579 58.042 C 458.209 57.572 457.869 57.172 457.569 56.742 C 455.889 54.402 454.249 52.042 452.549 49.712 C 450.689 47.172 448.679 44.752 446.409 42.562 C 442.129 38.412 437.079 35.512 431.519 33.452 C 427.309 31.892 422.979 30.782 418.559 30.042 C 413.989 29.272 409.399 28.642 404.799 28.032 C 399.719 27.362 394.599 27.252 389.479 27.342 C 389.109 27.352 388.729 27.362 388.359 27.382 C 388.259 27.392 388.159 27.442 387.969 27.492 C 387.909 27.752 387.819 28.042 387.789 28.342 C 387.759 28.712 387.779 29.092 387.779 29.462 C 387.779 59.532 387.779 89.602 387.779 119.662 C 387.779 120.292 387.709 120.932 387.889 121.602 C 388.759 121.872 389.609 121.642 390.429 121.602 C 393.039 121.492 395.639 121.342 398.239 121.102 C 401.629 120.792 405.029 120.482 408.409 120.022 C 412.889 119.412 417.349 118.612 421.759 117.562 C 428.719 115.902 435.509 113.732 441.909 110.482 C 446.449 108.172 450.689 105.432 454.239 101.732 C 455.529 100.392 456.669 98.912 457.909 97.462 C 457.929 97.552 457.989 97.682 457.959 97.772 C 456.259 102.032 454.469 106.242 452.189 110.232 C 447.979 117.612 442.109 123.252 434.549 127.142 C 432.219 128.342 429.829 129.382 427.369 130.252 C 422.189 132.092 416.859 133.362 411.429 134.222 C 405.259 135.192 399.049 135.692 392.819 135.892 C 388.989 136.012 385.149 136.052 381.319 136.142 C 378.709 136.202 376.099 136.282 373.489 136.342 C 372.849 136.352 372.209 136.342 371.569 136.302 C 368.429 136.132 365.279 136.032 362.149 135.752 C 358.169 135.392 354.189 134.982 350.239 134.422 C 345.329 133.732 340.489 132.702 335.729 131.292 C 330.299 129.692 325.059 127.622 320.179 124.692 C 315.799 122.062 311.849 118.902 308.719 114.852 C 304.769 109.732 301.269 104.322 299.229 98.102 C 298.229 95.052 297.659 91.912 297.419 88.712 C 297.249 86.422 297.239 84.152 297.379 81.852 C 297.649 77.652 297.649 73.432 297.389 69.222 C 297.109 64.692 296.459 60.212 294.909 55.912 C 293.869 53.032 292.459 50.362 290.579 47.942 C 290.429 47.752 290.229 47.602 289.889 47.282 C 289.839 47.702 289.809 47.892 289.799 48.082 C 289.619 54.342 289.729 101.702 289.919 103.222 C 290.329 103.352 290.469 103.002 290.649 102.782 C 292.649 100.312 294.079 97.522 295.129 94.532 C 295.299 94.032 295.479 93.532 295.719 92.832 C 296.399 94.492 296.469 96.122 297.019 97.602 C 297.589 99.152 298.079 100.732 298.719 102.252 C 299.339 103.722 300.069 105.152 300.839 106.542 C 301.639 107.982 302.509 109.392 303.399 110.782 C 304.259 112.122 305.169 113.432 306.069 114.772 C 304.429 116.912 302.599 118.762 300.619 120.472 C 296.179 124.312 291.149 127.162 285.739 129.382 C 280.499 131.532 275.069 133.052 269.519 134.162 C 263.819 135.302 258.059 136.012 252.269 136.502 C 244.979 137.112 237.679 137.192 230.379 137.102 C 226.859 137.062 223.339 136.942 219.839 136.722 C 209.869 136.102 200.009 134.812 190.399 131.962 C 184.399 130.182 178.659 127.792 173.389 124.362 C 170.199 122.292 167.299 119.872 164.739 117.062 C 164.279 116.552 163.849 116.012 163.369 115.452 C 165.099 112.932 166.689 110.412 168.029 107.732 C 169.339 105.102 170.429 102.392 171.309 99.582 C 172.189 96.762 172.789 93.872 173.409 90.952 C 174.739 94.622 176.249 98.112 178.809 101.312 C 178.929 100.912 179.009 100.732 179.029 100.552 C 179.049 100.122 179.039 99.702 179.039 99.272 C 179.039 83.122 179.039 66.962 179.039 50.812 C 179.039 50.242 179.009 49.682 178.989 49.142 C 178.439 49.012 178.349 49.412 178.189 49.642 C 175.899 52.842 174.369 56.402 173.359 60.192 C 172.529 63.292 172.089 66.462 171.859 69.652 C 171.789 70.662 171.899 71.672 171.909 72.692 C 171.919 74.132 171.909 75.572 171.909 77.002 C 171.919 78.702 171.839 80.402 171.919 82.112 C 171.999 84.022 171.839 85.942 171.649 87.852 C 171.219 92.262 170.319 96.582 168.849 100.782 C 167.099 105.802 164.649 110.462 161.449 114.702 C 158.729 118.312 155.299 121.192 151.529 123.662 C 146.859 126.722 141.789 128.922 136.499 130.622 C 131.469 132.242 126.329 133.362 121.109 134.212 C 115.629 135.102 110.119 135.642 104.589 135.992 C 100.169 136.272 95.749 136.272 91.329 136.142 C 88.719 136.062 86.099 136.122 83.499 135.992 C 79.239 135.792 74.989 135.522 70.739 135.212 C 68.399 135.042 66.059 134.852 63.749 134.492 C 55.129 133.142 46.769 130.902 38.889 127.072 C 32.889 124.152 27.499 120.392 22.939 115.482 C 19.459 111.742 16.679 107.532 14.439 102.962 C 13.709 101.482 13.079 99.952 12.409 98.442 C 12.309 98.212 12.239 97.972 12.309 97.642 C 12.459 97.822 12.639 97.982 12.769 98.172 C 15.159 101.642 18.219 104.432 21.649 106.842 C 26.209 110.052 31.209 112.432 36.429 114.332 C 42.449 116.522 48.639 118.112 54.959 119.152 C 58.899 119.802 62.849 120.442 66.809 120.912 C 70.139 121.312 73.499 121.512 76.849 121.692 C 79.399 121.832 81.959 121.802 84.519 121.832 C 84.719 121.832 84.919 121.762 85.049 121.732 C 85.149 121.622 85.189 121.582 85.219 121.532 C 85.239 121.492 85.259 121.432 85.259 121.382 C 85.269 90.412 85.279 59.432 85.289 28.462 C 85.289 28.252 85.279 28.032 85.249 27.822 C 85.239 27.722 85.169 27.632 85.089 27.422 C 84.849 27.402 84.549 27.332 84.249 27.342 C 80.259 27.502 76.269 27.652 72.279 27.842 C 70.259 27.942 68.239 28.112 66.219 28.242 C 59.879 28.652 53.599 29.412 47.399 30.832 C 42.719 31.902 38.149 33.332 33.819 35.452 C 28.869 37.872 24.569 41.152 21.019 45.372 C 19.239 47.492 17.579 49.712 15.919 51.932 C 14.579 53.722 13.329 55.582 12.029 57.402 C 11.859 57.642 11.629 57.852 11.299 58.222 C 11.329 57.872 11.329 57.712 11.369 57.572 C 13.279 51.262 15.869 45.262 19.519 39.762 C 24.559 32.172 31.229 26.422 39.309 22.282 C 45.229 19.252 51.499 17.242 57.969 15.792 C 61.559 14.992 65.209 14.552 68.859 14.132 C 74.529 13.482 80.219 13.152 85.909 12.962 C 91.179 12.792 96.459 12.852 101.729 13.132 C 110.479 13.592 119.139 14.642 127.649 16.742 C 134.509 18.432 141.099 20.802 147.239 24.362 C 152.079 27.172 156.379 30.612 159.999 34.902 C 160.269 35.232 160.539 35.562 160.789 35.902 C 160.849 35.982 160.859 36.102 160.919 36.302 C 156.099 44.612 152.939 53.612 151.179 63.112 C 150.809 63.112 150.739 62.862 150.649 62.602 C 149.789 60.132 148.679 57.772 147.349 55.512 C 147.209 55.272 147.159 54.862 146.669 54.902 C 146.639 55.022 146.569 55.162 146.569 55.302 C 146.559 70.382 146.569 85.452 146.569 100.502 C 147.029 100.692 147.119 100.382 147.239 100.172 C 148.709 97.622 149.779 94.892 150.599 92.072 C 151.669 88.372 152.219 84.572 152.499 80.742 C 152.579 79.572 152.479 78.402 152.479 77.222 C 152.489 74.662 152.469 72.112 152.529 69.552 C 152.609 65.802 153.289 62.142 154.179 58.512 C 155.789 51.962 158.119 45.692 161.269 39.722 C 163.719 35.062 167.079 31.212 171.329 28.102 C 176.149 24.582 181.429 21.982 187.039 20.002 C 192.579 18.042 198.279 16.732 204.069 15.762 C 209.599 14.842 215.159 14.282 220.749 13.932 C 226.709 13.562 232.679 13.422 238.649 13.582 C 243.439 13.712 248.239 13.872 253.019 14.232 C 261.799 14.892 270.489 16.172 278.969 18.642 C 283.889 20.082 288.649 21.912 293.149 24.412 C 298.819 27.562 303.709 31.602 307.519 36.892 C 307.709 37.152 307.899 37.412 308.119 37.642 C 311.099 40.742 313.009 44.462 314.429 48.472 C 315.769 52.252 316.559 56.162 317.049 60.142 C 317.419 63.102 317.629 66.082 317.669 69.062 C 317.679 70.072 317.589 71.082 317.529 72.092 C 317.029 80.822 318.789 89.042 323.119 96.672 C 323.219 96.912 323.359 97.062 323.629 97.432 Z M 382.859 121.752 C 382.859 121.002 382.859 120.312 382.859 119.622 C 382.859 89.632 382.859 59.632 382.859 29.642 C 382.859 29.212 382.879 28.792 382.849 28.362 C 382.829 28.062 382.749 27.762 382.709 27.482 C 380.629 27.222 376.829 27.332 375.679 27.672 C 375.439 29.232 375.329 101.462 375.539 120.502 C 375.539 120.922 375.589 121.332 375.619 121.722 C 376.839 122.032 381.149 122.072 382.859 121.752 Z M 237.739 117.872 C 237.949 116.362 238.079 37.252 237.899 32.992 C 237.889 32.732 237.809 32.482 237.749 32.132 C 236.869 32.102 236.019 32.042 235.179 32.042 C 234.269 32.032 233.369 32.042 232.459 32.092 C 231.629 32.132 230.769 31.882 229.909 32.372 C 229.909 33.012 229.909 33.652 229.909 34.282 C 229.909 61.412 229.909 88.542 229.909 115.662 C 229.909 116.092 229.889 116.512 229.919 116.942 C 229.939 117.242 230.029 117.532 230.089 117.862 C 232.669 117.872 235.169 117.872 237.739 117.872 Z M 363.159 29.182 C 363.149 29.992 363.139 30.682 363.139 31.362 C 363.139 60.412 363.139 89.472 363.139 118.522 C 363.139 118.892 363.119 119.272 363.149 119.642 C 363.169 120.002 363.229 120.352 363.279 120.742 C 365.639 121.212 367.959 121.432 370.319 121.562 C 370.629 120.842 370.499 120.142 370.499 119.462 C 370.509 89.712 370.509 59.972 370.509 30.222 C 370.509 29.792 370.529 29.372 370.499 28.942 C 370.479 28.632 370.399 28.332 370.339 27.952 C 367.939 28.232 365.639 28.602 363.159 29.182 Z M 250.419 117.282 C 250.419 116.532 250.419 115.842 250.419 115.162 C 250.419 88.402 250.419 61.652 250.419 34.892 C 250.419 34.462 250.429 34.042 250.409 33.612 C 250.399 33.302 250.339 33.002 250.299 32.672 C 249.449 32.412 248.639 32.502 247.859 32.432 C 247.009 32.362 246.159 32.282 245.309 32.252 C 244.539 32.232 243.739 32.042 242.889 32.342 C 242.879 33.082 242.859 33.772 242.859 34.452 C 242.859 61.472 242.859 88.492 242.859 115.522 C 242.859 115.952 242.839 116.372 242.869 116.802 C 242.889 117.112 242.959 117.412 242.999 117.692 C 244.239 117.842 249.089 117.582 250.419 117.282 Z M 112.729 30.642 C 112.679 30.962 112.609 31.162 112.609 31.362 C 112.609 60.792 112.619 90.222 112.629 119.652 C 112.629 119.802 112.719 119.952 112.789 120.172 C 113.969 120.182 115.099 119.862 116.239 119.612 C 117.359 119.372 118.539 119.292 119.539 118.732 C 119.709 116.242 119.649 34.362 119.469 32.972 C 117.329 32.062 115.089 31.282 112.729 30.642 Z M 90.269 27.402 C 90.259 28.232 90.229 28.922 90.229 29.602 C 90.229 59.612 90.229 89.632 90.229 119.642 C 90.229 120.072 90.219 120.492 90.239 120.922 C 90.249 121.222 90.309 121.522 90.369 121.942 C 92.469 122.002 94.459 121.972 96.459 121.752 C 96.709 120.992 96.609 120.292 96.609 119.612 C 96.619 89.702 96.609 59.802 96.609 29.892 C 96.609 29.462 96.629 29.042 96.599 28.612 C 96.579 28.312 96.499 28.012 96.449 27.692 C 94.419 27.392 92.459 27.332 90.269 27.402 Z M 217.869 32.902 C 217.869 33.662 217.869 34.352 217.869 35.042 C 217.869 61.682 217.869 88.332 217.869 114.972 C 217.869 115.342 217.859 115.722 217.879 116.092 C 217.899 116.452 217.949 116.812 217.989 117.152 C 220.129 117.562 223.359 117.732 224.729 117.522 C 224.769 117.392 224.859 117.242 224.859 117.092 C 224.869 89.012 224.869 60.932 224.869 32.852 C 224.869 32.702 224.779 32.562 224.739 32.422 C 223.449 32.262 219.489 32.532 217.869 32.902 Z M 351.709 32.712 C 351.709 61.132 351.709 89.572 351.709 118.062 C 352.739 118.582 353.839 118.802 354.909 119.072 C 355.959 119.332 356.989 119.792 358.209 119.672 C 358.209 90.132 358.209 60.672 358.199 31.222 C 358.199 31.022 358.119 30.832 358.079 30.642 C 356.729 30.682 353.199 31.832 351.709 32.712 Z M 255.409 33.092 C 255.399 34.002 255.379 34.692 255.369 35.372 C 255.369 61.812 255.369 88.252 255.369 114.692 C 255.369 115.122 255.349 115.542 255.379 115.972 C 255.399 116.272 255.479 116.572 255.549 116.962 C 257.679 116.802 259.719 116.562 261.659 116.152 C 261.759 116.012 261.799 115.972 261.809 115.922 C 261.839 115.772 261.889 115.612 261.889 115.452 C 261.899 88.802 261.899 62.142 261.899 35.492 C 261.899 35.122 261.869 34.752 261.849 34.372 C 261.849 34.322 261.829 34.262 261.809 34.222 C 261.789 34.172 261.749 34.142 261.599 33.962 C 259.709 33.552 257.669 33.292 255.409 33.092 Z M 206.039 34.472 C 206.039 35.242 206.039 35.872 206.039 36.512 C 206.039 62.192 206.039 87.882 206.039 113.562 C 206.039 113.882 206.019 114.202 206.049 114.522 C 206.069 114.882 206.129 115.232 206.169 115.552 C 208.279 116.132 211.469 116.602 212.759 116.502 C 212.969 115.912 212.889 115.272 212.889 114.652 C 212.889 88.222 212.889 61.792 212.889 35.362 C 212.889 35.042 212.909 34.722 212.879 34.402 C 212.859 34.102 212.789 33.802 212.719 33.362 C 210.469 33.582 208.339 33.932 206.039 34.472 Z M 266.849 34.992 C 266.849 61.622 266.849 88.002 266.859 114.392 C 266.859 114.592 266.939 114.792 266.979 114.982 C 268.429 115.032 272.119 114.112 273.799 113.272 C 273.799 87.872 273.799 62.452 273.799 36.932 C 271.609 36.102 269.379 35.492 266.849 34.992 Z M 101.839 28.302 C 101.759 28.512 101.659 28.652 101.659 28.802 C 101.649 59.512 101.649 90.212 101.659 120.922 C 101.659 121.062 101.759 121.212 101.829 121.432 C 103.739 121.492 105.599 121.272 107.439 120.932 C 107.689 119.102 107.789 48.232 107.579 30.642 C 107.579 30.222 107.529 29.802 107.489 29.272 C 105.599 28.862 103.749 28.412 101.839 28.302 Z M 346.599 116.082 C 346.629 115.932 346.699 115.782 346.699 115.642 C 346.689 88.832 346.679 62.022 346.669 35.212 C 346.669 35.162 346.649 35.102 346.619 35.062 C 346.589 35.022 346.529 35.012 346.489 34.992 C 345.039 35.382 341.629 37.232 340.109 38.452 C 339.949 40.452 339.999 111.862 340.159 113.092 C 341.949 114.352 345.209 115.862 346.599 116.082 Z M 194.649 37.702 C 194.479 39.942 194.519 111.112 194.699 112.422 C 196.679 113.172 198.699 113.922 200.859 114.352 C 201.169 113.582 201.049 112.882 201.049 112.202 C 201.059 87.432 201.059 62.652 201.049 37.882 C 201.049 37.452 201.069 37.032 201.039 36.602 C 201.019 36.312 200.919 36.032 200.829 35.682 C 198.659 36.212 196.639 36.852 194.649 37.702 Z M 130.519 38.722 C 128.819 37.432 126.049 35.912 124.769 35.552 C 124.719 35.692 124.629 35.842 124.629 35.992 C 124.629 62.902 124.629 89.812 124.629 116.722 C 124.629 116.872 124.719 117.022 124.769 117.162 C 126.209 116.982 129.269 115.782 130.509 114.892 C 130.519 89.502 130.519 64.082 130.519 38.722 Z M 284.699 42.332 C 283.079 41.142 281.309 40.072 279.409 39.232 C 279.299 39.182 279.119 39.262 278.879 39.302 C 278.879 39.962 278.879 40.602 278.879 41.232 C 278.879 63.922 278.879 86.612 278.879 109.302 C 278.879 109.732 278.869 110.152 278.889 110.582 C 278.899 110.822 278.819 111.122 279.139 111.252 C 280.979 110.662 283.599 109.182 284.769 108.072 C 284.949 106.102 284.899 43.632 284.699 42.332 Z M 135.599 42.522 C 135.599 43.312 135.599 43.892 135.599 44.482 C 135.599 66.342 135.599 88.202 135.599 110.052 C 135.599 110.482 135.589 110.902 135.609 111.332 C 135.619 111.572 135.509 111.872 135.919 112.052 C 136.099 111.952 136.349 111.852 136.549 111.702 C 137.739 110.802 138.949 109.932 140.099 108.982 C 141.629 107.712 141.609 107.692 141.609 105.752 C 141.609 87.092 141.609 68.432 141.609 49.772 C 141.609 49.402 141.589 49.022 141.609 48.652 C 141.649 48.072 141.449 47.612 141.029 47.232 C 139.429 45.752 137.829 44.262 136.219 42.782 C 136.129 42.692 135.969 42.672 135.599 42.522 Z M 189.579 40.122 C 189.149 40.272 188.949 40.312 188.779 40.422 C 187.479 41.252 186.189 42.102 184.879 42.922 C 184.229 43.332 183.999 43.882 184.009 44.652 C 184.049 47.052 184.019 49.442 184.019 51.842 C 184.019 69.472 184.019 87.102 184.019 104.732 C 184.019 105.362 184.049 105.992 184.059 106.562 C 185.579 107.852 187.169 108.822 188.799 109.722 C 188.969 109.812 189.179 109.832 189.399 109.892 C 189.469 109.662 189.559 109.522 189.559 109.382 C 189.589 86.372 189.579 63.362 189.579 40.122 Z M 334.819 109.602 C 335.009 108.312 335.099 44.862 334.929 42.482 C 334.919 42.402 334.809 42.342 334.719 42.242 C 334.589 42.302 334.429 42.332 334.329 42.432 C 332.709 43.892 331.099 45.372 329.469 46.832 C 328.989 47.262 328.779 47.752 328.839 48.382 C 328.869 48.702 328.839 49.022 328.839 49.342 C 328.839 67.092 328.839 84.852 328.839 102.602 C 328.839 102.922 328.869 103.242 328.839 103.562 C 328.779 104.202 328.999 104.702 329.469 105.122 C 330.739 106.262 331.989 107.422 333.269 108.552 C 333.699 108.922 334.119 109.332 334.819 109.602 Z"/>
  </g>
</svg>